<?xml version="1.0" encoding="UTF-8" standalone="no"?>
<svg
   width="16"
   height="16"
   fill="currentColor"
   class="bi bi-card-list"
   viewBox="0 0 16 16"
   version="1.1"
   id="svg6"
   sodipodi:docname="sinaletica_fast.svg"
   xml:space="preserve"
   inkscape:version="1.2.2 (b0a8486541, 2022-12-01)"
   xmlns:inkscape="http://www.inkscape.org/namespaces/inkscape"
   xmlns:sodipodi="http://sodipodi.sourceforge.net/DTD/sodipodi-0.dtd"
   xmlns="http://www.w3.org/2000/svg"
   xmlns:svg="http://www.w3.org/2000/svg"><defs
     id="defs10" /><sodipodi:namedview
     id="namedview8"
     pagecolor="#ffffff"
     bordercolor="#000000"
     borderopacity="0.25"
     inkscape:showpageshadow="2"
     inkscape:pageopacity="0.0"
     inkscape:pagecheckerboard="0"
     inkscape:deskcolor="#d1d1d1"
     showgrid="false"
     inkscape:zoom="28.1875"
     inkscape:cx="-6.9179601"
     inkscape:cy="10.075388"
     inkscape:window-width="1920"
     inkscape:window-height="1029"
     inkscape:window-x="0"
     inkscape:window-y="27"
     inkscape:window-maximized="1"
     inkscape:current-layer="svg6" /><g
     id="g1121"
     transform="matrix(1.1474457,0,0,1.1474457,-0.28640561,1.2390169)"><path
       id="path403-3"
       style="fill:none;stroke:#000000;stroke-width:0.9;stroke-dasharray:none"
       d="M 9.0367269,3.5341512 7.4916016,7.5974691 5.9552613,3.5413859 3.5709107,9.8107707 l 4.2937474,0.039955 0.4821885,0.00449 0.084659,-1.497e-4 2.9968064,-0.00709 z"
       sodipodi:nodetypes="ccccccccc" /><g
       id="g1115"><path
         style="fill:none;stroke:#000000;stroke-width:1.14772;stroke-dasharray:none"
         d="M 6.0589815,9.8051197 V 12.613921"
         id="path959-6" /><path
         style="fill:none;stroke:#000000;stroke-width:1.14772;stroke-dasharray:none"
         d="M 8.9410186,9.9331335 V 12.741934"
         id="path990" /></g></g><text
     xml:space="preserve"
     style="font-weight:bold;font-size:10.8396px;line-height:111.648px;font-family:sans-serif;-inkscape-font-specification:'sans-serif Bold';text-align:center;text-anchor:middle;fill:#000000;fill-opacity:1;stroke:none;stroke-width:0.652756;stroke-dasharray:none;stroke-opacity:1"
     x="13.075831"
     y="8.6105185"
     id="text806"><tspan
       sodipodi:role="line"
       id="tspan804"
       x="13.075831"
       y="8.6105185"
       style="fill:#000000;fill-opacity:1;stroke:none;stroke-width:0.652756;stroke-dasharray:none;stroke-opacity:1">?</tspan></text><path
     d="M 1.7815865,0.66977247 C 1.9178154,0.4226127 2.195842,0.26654122 2.4999252,0.26653393 H 4.1069466 C 4.6550512,0.2669124 5.0418758,0.75510734 4.8686747,1.2278798 L 4.4187086,2.4580553 H 5.713968 c 0.672884,8.692e-4 1.0466192,0.7083071 0.6267382,1.1863422 L 3.1266634,7.2969334 C 2.5875316,7.9058109 1.5150958,7.4233256 1.7205198,6.6643141 L 2.2749422,4.6495768 H 0.89290382 C 0.29529141,4.6495579 -0.09316516,4.0775445 0.17456521,3.5918011 Z"
     id="path5756"
     style="fill:#000000;fill-opacity:1;stroke:none;stroke-width:1.14227;stroke-dasharray:none;stroke-opacity:1" /></svg>
