<?xml version="1.0" encoding="UTF-8" standalone="no"?>
<!-- Created with Inkscape (http://www.inkscape.org/) -->

<svg
   width="15mm"
   height="15mm"
   viewBox="0 0 15 15"
   version="1.1"
   id="svg531"
   inkscape:version="1.2.2 (b0a8486541, 2022-12-01)"
   sodipodi:docname="1.15 Broken Ground.svg"
   xml:space="preserve"
   xmlns:inkscape="http://www.inkscape.org/namespaces/inkscape"
   xmlns:sodipodi="http://sodipodi.sourceforge.net/DTD/sodipodi-0.dtd"
   xmlns="http://www.w3.org/2000/svg"
   xmlns:svg="http://www.w3.org/2000/svg"><sodipodi:namedview
     id="namedview533"
     pagecolor="#ffffff"
     bordercolor="#000000"
     borderopacity="0.25"
     inkscape:showpageshadow="2"
     inkscape:pageopacity="0.0"
     inkscape:pagecheckerboard="0"
     inkscape:deskcolor="#d1d1d1"
     inkscape:document-units="mm"
     showgrid="false"
     inkscape:zoom="9.0911234"
     inkscape:cx="19.799533"
     inkscape:cy="43.998963"
     inkscape:window-width="1447"
     inkscape:window-height="1053"
     inkscape:window-x="230"
     inkscape:window-y="27"
     inkscape:window-maximized="0"
     inkscape:current-layer="layer1" /><defs
     id="defs528" /><g
     inkscape:label="Layer 1"
     inkscape:groupmode="layer"
     id="layer1"><g
       id="g9862"
       transform="translate(-0.10128844,-2.4983514)"><path
         style="fill:none;stroke:#000000;stroke-width:0.380547"
         d="m 2.6007083,5.3602894 c 0,0 -0.6416965,1.4749394 -0.4247601,2.4103549 C 2.4371921,8.8971118 3.624153,9.5201317 4.4591857,9.5253124 5.3066559,9.530571 6.4863897,8.8907734 6.7618231,7.7531423 6.9859489,6.8274314 6.3806562,5.3602894 6.3806562,5.3602894"
         id="path8316"
         sodipodi:nodetypes="csssc" /><path
         style="fill:none;stroke:#000000;stroke-width:0.380547"
         d="m 8.8604535,5.3602892 c 0,0 -0.6416965,1.4749394 -0.4247601,2.4103549 0.2612439,1.126468 1.4482048,1.749487 2.2832376,1.754668 0.84747,0.0053 2.027204,-0.634539 2.302638,-1.77217 0.224126,-0.9257109 -0.381167,-2.3928529 -0.381167,-2.3928529"
         id="path8316-6"
         sodipodi:nodetypes="csssc" /><path
         style="fill:none;stroke:#000000;stroke-width:0.380547"
         d="m 5.6292929,10.356992 c 0,0 -0.6416965,1.47494 -0.4247601,2.410355 0.2612439,1.126468 1.4482048,1.749488 2.2832375,1.754668 0.8474702,0.0053 2.0272043,-0.634539 2.3026373,-1.77217 0.2241254,-0.925711 -0.381167,-2.392853 -0.381167,-2.392853"
         id="path8316-2"
         sodipodi:nodetypes="csssc" /></g></g></svg>
